<svg xmlns="http://www.w3.org/2000/svg" viewBox="0 0 960 600" role="img" aria-labelledby="title desc">
  <title id="title">U.S. Flight Delay Analysis preview</title>
  <desc id="desc">A stylized analytics dashboard with delay charts and airport performance panels.</desc>
  <defs>
    <linearGradient id="bg" x1="0" x2="1" y1="0" y2="1">
      <stop offset="0" stop-color="#f8fafc"/>
      <stop offset="1" stop-color="#dbeafe"/>
    </linearGradient>
  </defs>
  <rect width="960" height="600" fill="url(#bg)"/>
  <rect x="58" y="58" width="844" height="484" rx="30" fill="#fff" stroke="#bfdbfe" stroke-width="3"/>
  <rect x="96" y="96" width="250" height="28" rx="14" fill="#0f172a"/>
  <rect x="96" y="146" width="150" height="16" rx="8" fill="#64748b"/>
  <g transform="translate(96 214)">
    <rect width="330" height="230" rx="22" fill="#eff6ff" stroke="#dbe3ef"/>
    <path d="M36 178h258" stroke="#cbd5e1" stroke-width="3"/>
    <rect x="58" y="105" width="28" height="73" rx="8" fill="#2563eb"/>
    <rect x="118" y="72" width="28" height="106" rx="8" fill="#60a5fa"/>
    <rect x="178" y="125" width="28" height="53" rx="8" fill="#93c5fd"/>
    <rect x="238" y="48" width="28" height="130" rx="8" fill="#1d4ed8"/>
  </g>
  <g transform="translate(468 214)">
    <rect width="336" height="230" rx="22" fill="#0f172a"/>
    <path d="M44 160C90 88 145 128 184 74s80-18 112-48" fill="none" stroke="#60a5fa" stroke-width="7" stroke-linecap="round"/>
    <circle cx="44" cy="160" r="8" fill="#dbeafe"/>
    <circle cx="184" cy="74" r="8" fill="#dbeafe"/>
    <circle cx="296" cy="26" r="8" fill="#dbeafe"/>
    <rect x="36" y="184" width="210" height="14" rx="7" fill="#334155"/>
  </g>
  <g fill="#2563eb">
    <rect x="650" y="104" width="156" height="22" rx="11"/>
    <rect x="650" y="144" width="92" height="14" rx="7" opacity=".55"/>
  </g>
</svg>
