<svg xmlns="http://www.w3.org/2000/svg" viewBox="0 0 960 600" role="img" aria-labelledby="title desc">
  <title id="title">Live Flight Delay Analysis dashboard preview</title>
  <desc id="desc">Dark live aviation dashboard with delay metrics, airport network map, risk indicators, and an orange delay trend chart.</desc>
  <defs>
    <linearGradient id="delay-bg" x1="0" x2="1" y1="0" y2="1"><stop offset="0" stop-color="#071321"/><stop offset="1" stop-color="#132b44"/></linearGradient>
    <linearGradient id="chart-fill" x1="0" x2="0" y1="0" y2="1"><stop offset="0" stop-color="#f59e0b" stop-opacity=".4"/><stop offset="1" stop-color="#f59e0b" stop-opacity="0"/></linearGradient>
    <filter id="delay-glow" x="-80%" y="-80%" width="260%" height="260%"><feGaussianBlur stdDeviation="4" result="b"/><feMerge><feMergeNode in="b"/><feMergeNode in="SourceGraphic"/></feMerge></filter>
  </defs>
  <rect width="960" height="600" rx="28" fill="url(#delay-bg)"/>
  <g font-family="Arial, sans-serif">
    <text x="42" y="55" fill="#f8fafc" font-size="22" font-weight="700">LIVE FLIGHT DELAY ANALYSIS</text>
    <text x="42" y="80" fill="#8fa8c1" font-size="12" letter-spacing="1.3">AIRPORT AND ROUTE RISK MONITOR</text>
    <g transform="translate(810 30)"><rect width="104" height="34" rx="17" fill="#3b2510" stroke="#f59e0b"/><circle cx="20" cy="17" r="5" fill="#f59e0b" filter="url(#delay-glow)"/><text x="34" y="22" fill="#ffd88a" font-size="12" font-weight="700">LIVE</text></g>
  </g>
  <g transform="translate(42 105)" font-family="Arial, sans-serif">
    <g><rect width="190" height="92" rx="15" fill="#10243a" stroke="#2c4660"/><text x="18" y="25" fill="#8fa8c1" font-size="11">AVG DELAY</text><text x="18" y="65" fill="#f8fafc" font-size="31" font-weight="700">34.8</text><text x="100" y="64" fill="#f59e0b" font-size="12">MIN</text></g>
    <g transform="translate(205)"><rect width="190" height="92" rx="15" fill="#10243a" stroke="#2c4660"/><text x="18" y="25" fill="#8fa8c1" font-size="11">FLIGHTS</text><text x="18" y="65" fill="#f8fafc" font-size="31" font-weight="700">1,284</text><text x="121" y="64" fill="#6eb4ec" font-size="12">TODAY</text></g>
    <g transform="translate(410)"><rect width="190" height="92" rx="15" fill="#10243a" stroke="#2c4660"/><text x="18" y="25" fill="#8fa8c1" font-size="11">AT RISK</text><text x="18" y="65" fill="#f59e0b" font-size="31" font-weight="700">86</text><text x="70" y="64" fill="#f3b0a2" font-size="12">ROUTES</text></g>
  </g>
  <g transform="translate(42 217)">
    <rect width="570" height="323" rx="18" fill="#0b1b2d" stroke="#2c4660"/>
    <text x="20" y="30" fill="#dce7f2" font-family="Arial, sans-serif" font-size="13" font-weight="700">NETWORK CONDITIONS</text>
    <path d="M70 105L111 80 166 87 207 76 247 89 291 77 325 93 369 92 405 104 448 97 482 116 518 124 537 149 527 175 494 178 472 203 451 230 423 240 401 218 365 214 342 231 307 218 270 226 236 210 199 210 171 190 138 181 116 157 84 149Z" fill="#152c44" stroke="#526e89" stroke-width="1.5"/>
    <g fill="none" stroke-linecap="round"><path d="M120 169Q262 62 401 138M145 197Q285 111 439 154M250 184Q335 118 401 138M327 207Q375 160 401 138M401 138Q450 101 493 147M327 207Q397 218 444 205" stroke="#4b8fca" stroke-width="2" opacity=".72"/><path d="M145 197Q315 70 493 147M250 184Q349 236 444 205" stroke="#f59e0b" stroke-width="3" opacity=".88"/></g>
    <g fill="#8ac4f4" stroke="#e2f2ff" stroke-width="1"><circle cx="120" cy="169" r="5"/><circle cx="250" cy="184" r="5"/><circle cx="401" cy="138" r="6"/><circle cx="493" cy="147" r="5"/><circle cx="444" cy="205" r="5"/></g>
    <g fill="#f59e0b" stroke="#fff3d1" stroke-width="2" filter="url(#delay-glow)"><circle cx="145" cy="197" r="7"/><circle cx="327" cy="207" r="8"/><circle cx="401" cy="138" r="8"/></g>
    <g font-family="Arial, sans-serif" font-size="10" font-weight="700" fill="#e8f2fc"><text x="309" y="229">DFW</text><text x="383" y="122">ORD</text><text x="426" y="226">ATL</text></g>
    <g transform="translate(20 266)" font-family="Arial, sans-serif"><circle cx="5" cy="5" r="4" fill="#f59e0b"/><text x="16" y="9" fill="#93a9be" font-size="10">High risk</text><circle cx="92" cy="5" r="4" fill="#4b8fca"/><text x="103" y="9" fill="#93a9be" font-size="10">Monitoring</text></g>
  </g>
  <g transform="translate(632 105)" font-family="Arial, sans-serif">
    <rect width="286" height="220" rx="18" fill="#10243a" stroke="#2c4660"/>
    <text x="18" y="28" fill="#dce7f2" font-size="13" font-weight="700">DELAY TREND</text><text x="218" y="28" fill="#f59e0b" font-size="11">+12.4%</text>
    <g stroke="#29445e" stroke-width="1"><path d="M18 68h248M18 108h248M18 148h248M18 188h248"/></g>
    <path d="M20 175L55 158 88 166 121 119 154 132 187 86 220 97 264 54V190H20Z" fill="url(#chart-fill)"/>
    <path d="M20 175L55 158 88 166 121 119 154 132 187 86 220 97 264 54" fill="none" stroke="#f59e0b" stroke-width="4" stroke-linecap="round" stroke-linejoin="round"/>
    <g fill="#ffe0a3"><circle cx="121" cy="119" r="4"/><circle cx="187" cy="86" r="4"/><circle cx="264" cy="54" r="4"/></g>
  </g>
  <g transform="translate(632 345)" font-family="Arial, sans-serif">
    <rect width="286" height="195" rx="18" fill="#10243a" stroke="#2c4660"/>
    <text x="18" y="28" fill="#dce7f2" font-size="13" font-weight="700">AIRPORT WATCH</text>
    <g transform="translate(18 48)"><text fill="#f8fafc" font-size="12" font-weight="700">IAH</text><rect x="46" y="-8" width="180" height="10" rx="5" fill="#203a53"/><rect x="46" y="-8" width="142" height="10" rx="5" fill="#f59e0b"/><text x="235" fill="#f6c76f" font-size="10">HIGH</text></g>
    <g transform="translate(18 91)"><text fill="#f8fafc" font-size="12" font-weight="700">ATL</text><rect x="46" y="-8" width="180" height="10" rx="5" fill="#203a53"/><rect x="46" y="-8" width="96" height="10" rx="5" fill="#4b8fca"/><text x="235" fill="#9fc9ed" font-size="10">MED</text></g>
    <g transform="translate(18 134)"><text fill="#f8fafc" font-size="12" font-weight="700">DEN</text><rect x="46" y="-8" width="180" height="10" rx="5" fill="#203a53"/><rect x="46" y="-8" width="56" height="10" rx="5" fill="#5f8f7b"/><text x="235" fill="#a7d5c2" font-size="10">LOW</text></g>
  </g>
</svg>
